<?xml version="1.0" standalone="no"?>
<!DOCTYPE svg PUBLIC "-//W3C//DTD SVG 20010904//EN"
 "http://www.w3.org/TR/2001/REC-SVG-20010904/DTD/svg10.dtd">
<svg version="1.0" xmlns="http://www.w3.org/2000/svg"
 width="256.000000pt" height="256.000000pt" viewBox="0 0 256.000000 256.000000"
 preserveAspectRatio="xMidYMid meet">
<metadata>
Created by potrace 1.14, written by Peter Selinger 2001-2017
</metadata>
<g transform="translate(0.000000,256.000000) scale(0.100000,-0.100000)"
fill="#000000" stroke="none">
<path d="M196 2132 l-39 -3 6 -162 c3 -89 8 -173 11 -187 3 -14 8 -34 10 -45
2 -11 9 -40 16 -65 7 -25 13 -52 15 -60 2 -8 8 -27 14 -42 22 -55 32 -83 32
-85 0 -1 14 -28 31 -60 17 -32 36 -68 42 -80 6 -13 14 -23 19 -23 4 0 7 -7 7
-15 0 -8 5 -15 10 -15 6 0 10 -5 10 -11 0 -6 6 -16 13 -24 6 -7 21 -25 32 -40
55 -76 261 -262 307 -277 10 -4 13 -63 13 -256 0 -217 2 -252 15 -252 24 -1
1394 -1 1498 -1 l92 1 -3 133 c-3 114 -7 138 -26 176 -21 40 -106 131 -123
131 -4 0 -13 6 -20 13 -31 29 -188 95 -302 126 -131 36 -223 50 -371 56 -196
8 -317 35 -448 101 -141 72 -285 194 -353 300 -10 16 -21 31 -25 34 -21 17
-127 250 -113 250 2 0 -1 12 -7 28 -14 37 -23 127 -23 249 -1 84 -4 103 -16
103 -88 3 -293 4 -324 2z"/>
<path d="M1397 2124 c-3 -3 -13 -7 -24 -9 -10 -2 -18 -4 -18 -5 0 -1 -7 -3
-16 -5 -30 -6 -124 -71 -161 -113 -42 -47 -81 -118 -97 -179 -11 -40 -16 -153
-8 -183 3 -8 8 -30 12 -48 4 -18 12 -35 16 -38 5 -3 7 -10 4 -15 -4 -5 -1 -9
5 -9 6 0 8 -4 5 -10 -3 -5 -2 -10 4 -10 5 0 13 -10 17 -22 11 -35 111 -125
170 -153 221 -104 468 -16 573 204 32 69 35 82 34 165 -1 81 -6 136 -13 144
-1 1 -3 5 -4 10 -7 24 -42 92 -48 92 -5 0 -8 5 -8 11 0 23 -107 113 -170 143
-57 27 -77 31 -166 33 -56 1 -104 0 -107 -3z"/>
</g>
</svg>
